<?xml version="1.0" standalone="yes"?>
<svg xmlns="http://www.w3.org/2000/svg" width="150.0" height="200.0" style="zoom: 1;">
<g>

<circle id="M1" cx="25"  cy="1"  r="5" stroke="#FF0000" fill="#FF0000" />
<circle id="M2" cx="1"  cy="125"  r="5" stroke="#FF0000" fill="#FF0000" />
<circle id="M3" cx="99"  cy="75"  r="5" stroke="#00FF00" fill="#00FF00" />
<circle id="M4" cx="75"  cy="199"  r="5" stroke="#0000FF" fill="#0000FF" />
<circle id="M5" cx="125"  cy="149"  r="5" stroke="#FFFF00" fill="#FFFF00" />



<line stroke="#000000" x1="0.0" x2="150.0" y1="0.0" y2="0.0"></line>
<line stroke="#000000" x1="150.0" x2="150.0" y1="0.0" y2="150.0"></line>
<line stroke="#000000" x1="150.0" x2="100.0" y1="150.0" y2="150.0"></line>
<line stroke="#000000" x1="100.0" x2="100.0" y1="150.0" y2="200.0"></line>
<line stroke="#000000" x1="100.0" x2="0.0" y1="200.0" y2="200.0"></line>
<line stroke="#000000" x1="0.0" x2="0.0" y1="200.0" y2="0.0"></line>
<line stroke="#000000" x1="0.0" x2="50.0" y1="100.0" y2="100.0"></line>
<line stroke="#000000" x1="50.0" x2="50.0" y1="50.0" y2="0.0"></line>
<line stroke="#000000" x1="150.0" x2="100.0" y1="50.0" y2="50.0"></line>
<line stroke="#000000" x1="0.0" x2="50.0" y1="150.0" y2="150.0"></line>
<line stroke="#000000" x1="100.0" x2="100.0" y1="50.0" y2="100.0"></line>
</g>
</svg>
