<?xml version="1.0" standalone="yes"?>
<svg xmlns="http://www.w3.org/2000/svg" width="400.0" height="90.0" style="zoom: 1;">
<g>
    <rect stroke="#000000" x="0.0" y="70.0" height="20.0" width="400.0" />
    <line stroke="#000000" x1="0.0" x2="400" y1="0.0" y2="0.0" />
    <line stroke="#000000" x1="400.0" x2="400.0" y1="0.0" y2="90.0" />
    <line stroke="#000000" x1="400.0" x2="0.0" y1="90.0" y2="90.0" />
    <line stroke="#000000" x1="0.0" x2="0.0" y1="0.0" y2="90.0" />
<g>
<line stroke="#000000" x1="10.0" x2="10.0" y1="0.0" y2="50.0" />
<line stroke="#000000" x1="10.0" x2="60.0" y1="50.0" y2="50.0" />
<line stroke="#000000" x1="60.0" x2="60.0" y1="0.0" y2="50.0" />
</g>
<g>
<line stroke="#000000" x1="80.0" x2="80.0" y1="0.0" y2="50.0" />
<line stroke="#000000" x1="80.0" x2="130.0" y1="50.0" y2="50.0" />
<line stroke="#000000" x1="130.0" x2="130.0" y1="0.0" y2="50.0" />
</g>
<g>
<line stroke="#000000" x1="170.0" x2="170.0" y1="0.0" y2="50.0" />
<line stroke="#000000" x1="170.0" x2="220.0" y1="50.0" y2="50.0" />
<line stroke="#000000" x1="220.0" x2="220.0" y1="0.0" y2="50.0" />
</g>
<g>
<line stroke="#000000" x1="240.0" x2="240.0" y1="0.0" y2="50.0" />
<line stroke="#000000" x1="240.0" x2="290.0" y1="50.0" y2="50.0" />
<line stroke="#000000" x1="290.0" x2="290.0" y1="0.0" y2="50.0" />
</g>

<g>
<line stroke="#000000" x1="320.0" x2="320.0" y1="0.0" y2="50.0" />
<line stroke="#000000" x1="320.0" x2="370.0" y1="50.0" y2="50.0" />
<line stroke="#000000" x1="370.0" x2="370.0" y1="0.0" y2="50.0" />
</g>
</g>
</svg>
